<?xml version="1.0" encoding="utf-8"?>
<!-- Generator: Adobe Illustrator 27.1.0, SVG Export Plug-In . SVG Version: 6.00 Build 0)  -->
<svg version="1.1" id="Layer_1" xmlns="http://www.w3.org/2000/svg" xmlns:xlink="http://www.w3.org/1999/xlink" x="0px" y="0px"
	 viewBox="0 0 40 32" style="enable-background:new 0 0 40 32;" xml:space="preserve">
<style type="text/css">
	.st0{fill:#DF5D5D;}
</style>
<path class="st0" d="M1.8,0C0.8,0,0,0.8,0,1.9c0,1,0.8,1.9,1.8,1.9c0,0,0,0,0.1,0h36.3c1,0,1.8-0.8,1.8-1.9S39.2,0,38.2,0
	c0,0,0,0-0.1,0H1.8z M1.8,14.1c-1,0-1.8,0.8-1.8,1.9c0,1,0.8,1.9,1.8,1.9c0,0,0,0,0.1,0h36.3c1,0,1.8-0.8,1.8-1.9
	c0-1-0.8-1.9-1.8-1.9c0,0,0,0-0.1,0H1.8z M1.8,28.2c-1,0-1.8,0.8-1.8,1.9c0,1,0.8,1.9,1.8,1.9c0,0,0,0,0.1,0h36.3
	c1,0,1.8-0.8,1.8-1.9c0-1-0.8-1.9-1.8-1.9c0,0,0,0-0.1,0H1.8z"/>
</svg>
