<?xml version="1.0" encoding="utf-8"?>
<!-- Generator: Adobe Illustrator 27.1.0, SVG Export Plug-In . SVG Version: 6.00 Build 0)  -->
<svg version="1.1" id="instagram" xmlns="http://www.w3.org/2000/svg" xmlns:xlink="http://www.w3.org/1999/xlink" x="0px" y="0px"
	 viewBox="0 0 33.4 33.4" style="enable-background:new 0 0 33.4 33.4;" xml:space="preserve">
<style type="text/css">
	.st0{fill:#757575;}
	.st1{fill:#FFFFFF;}
	.st2{fill:#A5D5E3;}
</style>
<path id="Path_16" class="st0" d="M33.4,16.7c0,9.2-7.5,16.7-16.7,16.7C7.5,33.4,0,25.9,0,16.7C0,7.5,7.5,0,16.7,0c0,0,0,0,0,0
	C25.9,0,33.4,7.5,33.4,16.7z"/>
<g id="Group_8" transform="translate(6.268 6.268)">
	<path id="Path_17" class="st1" d="M16.9,0H4C1.8,0,0,1.8,0,4v12.8c0,2.2,1.8,4,4,4h12.8c2.2,0,4-1.8,4-4V4C20.9,1.8,19.1,0,16.9,0z
		 M18,2.4h0.5V6l-3.5,0l0-3.5L18,2.4z M7.5,8.3c1.2-1.6,3.5-2,5.1-0.8c1.6,1.2,2,3.5,0.8,5.1c-1.2,1.6-3.5,2-5.1,0.8
		c-1-0.7-1.5-1.8-1.5-3C6.8,9.7,7,8.9,7.5,8.3L7.5,8.3z M18.9,16.9c0,1.1-0.9,2-2,2H4c-1.1,0-2-0.9-2-2V8.3h3.1
		c-1.2,2.9,0.2,6.3,3.1,7.4s6.3-0.2,7.4-3.1c0.6-1.4,0.6-2.9,0-4.3h3.1L18.9,16.9z"/>
</g>
<path id="Path_18" class="st0" d="M33.4,16.7c0,9.2-7.5,16.7-16.7,16.7C7.5,33.4,0,25.9,0,16.7C0,7.5,7.5,0,16.7,0c0,0,0,0,0,0
	C25.9,0,33.4,7.5,33.4,16.7z"/>
<g id="Group_9" transform="translate(6.268 6.268)">
	<path id="Path_19" class="st1" d="M16.9,0H4C1.8,0,0,1.8,0,4v12.8c0,2.2,1.8,4,4,4h12.8c2.2,0,4-1.8,4-4V4C20.9,1.8,19.1,0,16.9,0z
		 M18,2.4h0.5V6l-3.5,0l0-3.5L18,2.4z M7.5,8.3c1.2-1.6,3.5-2,5.1-0.8c1.6,1.2,2,3.5,0.8,5.1c-1.2,1.6-3.5,2-5.1,0.8
		c-1-0.7-1.5-1.8-1.5-3C6.8,9.7,7,8.9,7.5,8.3L7.5,8.3z M18.9,16.9c0,1.1-0.9,2-2,2H4c-1.1,0-2-0.9-2-2V8.3h3.1
		c-1.2,2.9,0.2,6.3,3.1,7.4s6.3-0.2,7.4-3.1c0.6-1.4,0.6-2.9,0-4.3h3.1L18.9,16.9z"/>
</g>
<path id="Path_20" class="st2" d="M33.4,16.7c0,9.2-7.5,16.7-16.7,16.7C7.5,33.4,0,25.9,0,16.7C0,7.5,7.5,0,16.7,0c0,0,0,0,0,0
	C25.9,0,33.4,7.5,33.4,16.7z"/>
<g id="Group_10" transform="translate(6.268 6.268)">
	<path id="Path_21" class="st1" d="M16.9,0H4C1.8,0,0,1.8,0,4v12.8c0,2.2,1.8,4,4,4h12.8c2.2,0,4-1.8,4-4V4C20.9,1.8,19.1,0,16.9,0z
		 M18,2.4h0.5V6l-3.5,0l0-3.5L18,2.4z M7.5,8.3c1.2-1.6,3.5-2,5.1-0.8c1.6,1.2,2,3.5,0.8,5.1c-1.2,1.6-3.5,2-5.1,0.8
		c-1-0.7-1.5-1.8-1.5-3C6.8,9.7,7,8.9,7.5,8.3L7.5,8.3z M18.9,16.9c0,1.1-0.9,2-2,2H4c-1.1,0-2-0.9-2-2V8.3h3.1
		c-1.2,2.9,0.2,6.3,3.1,7.4s6.3-0.2,7.4-3.1c0.6-1.4,0.6-2.9,0-4.3h3.1L18.9,16.9z"/>
</g>
</svg>
