<?xml version="1.0" encoding="utf-8"?>
<!-- Generator: Adobe Illustrator 27.1.0, SVG Export Plug-In . SVG Version: 6.00 Build 0)  -->
<svg version="1.1" id="Layer_1" xmlns="http://www.w3.org/2000/svg" xmlns:xlink="http://www.w3.org/1999/xlink" x="0px" y="0px"
	 viewBox="0 0 95.7 95.7" style="enable-background:new 0 0 95.7 95.7;" xml:space="preserve">
<style type="text/css">
	.st0{fill:#757575;}
	.st1{fill:#FFFFFF;}
	.st2{fill:#A5D5E3;}
</style>
<g id="instagram" transform="translate(0 0)">
	<path id="Path_16" class="st0" d="M95.7,47.8c0,26.4-21.4,47.8-47.8,47.8C21.4,95.7,0,74.3,0,47.8S21.4,0,47.8,0c0,0,0,0,0,0
		C74.3,0,95.7,21.4,95.7,47.8z"/>
	<g id="Group_8" transform="translate(17.94 17.94)">
		<path id="Path_17" class="st1" d="M48.2,0H11.6C5.2,0,0,5.2,0,11.6v36.7c0,6.4,5.2,11.5,11.6,11.6h36.7c6.4,0,11.6-5.2,11.6-11.6
			V11.6C59.8,5.2,54.6,0,48.2,0z M51.6,6.9l1.3,0V17l-10.1,0l0-10.1L51.6,6.9z M21.4,23.8c3.4-4.7,10-5.8,14.7-2.4s5.8,10,2.4,14.7
			c-3.4,4.7-10,5.8-14.7,2.4c-2.7-2-4.4-5.2-4.3-8.5C19.4,27.7,20.1,25.6,21.4,23.8z M54,48.2c0,3.2-2.6,5.7-5.7,5.7H11.6
			c-3.2,0-5.7-2.6-5.7-5.7V23.8h8.9c-3.4,8.4,0.6,17.9,9,21.3s17.9-0.6,21.3-9c1.6-4,1.6-8.4,0-12.3H54L54,48.2z"/>
	</g>
	<path id="Path_18" class="st0" d="M95.7,47.8c0,26.4-21.4,47.8-47.8,47.8C21.4,95.7,0,74.3,0,47.8S21.4,0,47.8,0c0,0,0,0,0,0
		C74.3,0,95.7,21.4,95.7,47.8z"/>
	<g id="Group_9" transform="translate(17.94 17.94)">
		<path id="Path_19" class="st1" d="M48.2,0H11.6C5.2,0,0,5.2,0,11.6v36.7c0,6.4,5.2,11.5,11.6,11.6h36.7c6.4,0,11.6-5.2,11.6-11.6
			V11.6C59.8,5.2,54.6,0,48.2,0z M51.6,6.9l1.3,0V17l-10.1,0l0-10.1L51.6,6.9z M21.4,23.8c3.4-4.7,10-5.8,14.7-2.4s5.8,10,2.4,14.7
			c-3.4,4.7-10,5.8-14.7,2.4c-2.7-2-4.4-5.2-4.3-8.5C19.4,27.7,20.1,25.6,21.4,23.8z M54,48.2c0,3.2-2.6,5.7-5.7,5.7H11.6
			c-3.2,0-5.7-2.6-5.7-5.7V23.8h8.9c-3.4,8.4,0.6,17.9,9,21.3s17.9-0.6,21.3-9c1.6-4,1.6-8.4,0-12.3H54L54,48.2z"/>
	</g>
	<path id="Path_20" class="st2" d="M95.7,47.8c0,26.4-21.4,47.8-47.8,47.8C21.4,95.7,0,74.3,0,47.8S21.4,0,47.8,0c0,0,0,0,0,0
		C74.3,0,95.7,21.4,95.7,47.8z"/>
	<g id="Group_10" transform="translate(17.94 17.94)">
		<path id="Path_21" class="st1" d="M48.2,0H11.6C5.2,0,0,5.2,0,11.6v36.7c0,6.4,5.2,11.5,11.6,11.6h36.7c6.4,0,11.6-5.2,11.6-11.6
			V11.6C59.8,5.2,54.6,0,48.2,0z M51.6,6.9l1.3,0V17l-10.1,0l0-10.1L51.6,6.9z M21.4,23.8c3.4-4.7,10-5.8,14.7-2.4s5.8,10,2.4,14.7
			c-3.4,4.7-10,5.8-14.7,2.4c-2.7-2-4.4-5.2-4.3-8.5C19.4,27.7,20.1,25.6,21.4,23.8z M54,48.2c0,3.2-2.6,5.7-5.7,5.7H11.6
			c-3.2,0-5.7-2.6-5.7-5.7V23.8h8.9c-3.4,8.4,0.6,17.9,9,21.3s17.9-0.6,21.3-9c1.6-4,1.6-8.4,0-12.3H54L54,48.2z"/>
	</g>
</g>
</svg>
