<svg xmlns="http://www.w3.org/2000/svg" width="33.43" height="33.43" viewBox="0 0 33.43 33.43">
  <g id="instagram" transform="translate(0)">
    <path id="Path_16" data-name="Path 16" d="M1435.12,713.629a16.715,16.715,0,1,1-16.714-16.715A16.716,16.716,0,0,1,1435.12,713.629Z" transform="translate(-1401.69 -696.914)" fill="#757575"/>
    <g id="Group_8" data-name="Group 8" transform="translate(6.268 6.268)">
      <path id="Path_17" data-name="Path 17" d="M1427.545,705.914h-12.818a4.041,4.041,0,0,0-4.037,4.037V722.77a4.041,4.041,0,0,0,4.037,4.037h12.818a4.043,4.043,0,0,0,4.039-4.037V709.951A4.043,4.043,0,0,0,1427.545,705.914Zm1.159,2.409.461,0v3.541l-3.529.013-.012-3.541Zm-10.549,5.894a3.669,3.669,0,1,1-.7,2.144A3.675,3.675,0,0,1,1418.155,714.217Zm11.394,8.553a2.005,2.005,0,0,1-2,2h-12.818a2,2,0,0,1-2-2v-8.553h3.119a5.714,5.714,0,1,0,10.584,0h3.121Z" transform="translate(-1410.69 -705.914)" fill="#fff"/>
    </g>
    <path id="Path_18" data-name="Path 18" d="M1435.12,713.629a16.715,16.715,0,1,1-16.714-16.715A16.716,16.716,0,0,1,1435.12,713.629Z" transform="translate(-1401.69 -696.914)" fill="#757575"/>
    <g id="Group_9" data-name="Group 9" transform="translate(6.268 6.268)">
      <path id="Path_19" data-name="Path 19" d="M1427.545,705.914h-12.818a4.041,4.041,0,0,0-4.037,4.037V722.77a4.041,4.041,0,0,0,4.037,4.037h12.818a4.043,4.043,0,0,0,4.039-4.037V709.951A4.043,4.043,0,0,0,1427.545,705.914Zm1.159,2.409.461,0v3.541l-3.529.013-.012-3.541Zm-10.549,5.894a3.669,3.669,0,1,1-.7,2.144A3.675,3.675,0,0,1,1418.155,714.217Zm11.394,8.553a2.005,2.005,0,0,1-2,2h-12.818a2,2,0,0,1-2-2v-8.553h3.119a5.714,5.714,0,1,0,10.584,0h3.121Z" transform="translate(-1410.69 -705.914)" fill="#fff"/>
    </g>
    <path id="Path_20" data-name="Path 20" d="M1435.12,713.629a16.715,16.715,0,1,1-16.714-16.715A16.716,16.716,0,0,1,1435.12,713.629Z" transform="translate(-1401.69 -696.914)" fill="#fff"/>
    <g id="Group_10" data-name="Group 10" transform="translate(6.268 6.268)">
      <path id="Path_21" data-name="Path 21" d="M1427.545,705.914h-12.818a4.041,4.041,0,0,0-4.037,4.037V722.77a4.041,4.041,0,0,0,4.037,4.037h12.818a4.043,4.043,0,0,0,4.039-4.037V709.951A4.043,4.043,0,0,0,1427.545,705.914Zm1.159,2.409.461,0v3.541l-3.529.013-.012-3.541Zm-10.549,5.894a3.669,3.669,0,1,1-.7,2.144A3.675,3.675,0,0,1,1418.155,714.217Zm11.394,8.553a2.005,2.005,0,0,1-2,2h-12.818a2,2,0,0,1-2-2v-8.553h3.119a5.714,5.714,0,1,0,10.584,0h3.121Z" transform="translate(-1410.69 -705.914)" fill="#e64584"/>
    </g>
  </g>
</svg>
