<svg id="in" xmlns="http://www.w3.org/2000/svg" width="33.431" height="33.43" viewBox="0 0 33.431 33.43">
  <path id="Path_7" data-name="Path 7" d="M1032.87,587.879a16.715,16.715,0,1,1-16.715-16.715A16.715,16.715,0,0,1,1032.87,587.879Z" transform="translate(-999.439 -571.164)" fill="#585858"/>
  <g id="Group_4" data-name="Group 4" transform="translate(6.268 6.268)">
    <rect id="Rectangle_1" data-name="Rectangle 1" width="4.344" height="14.119" transform="translate(0.248 6.527)" fill="#fff"/>
    <path id="Path_8" data-name="Path 8" d="M1010.877,585.039a2.438,2.438,0,1,0-2.438-2.438A2.439,2.439,0,0,0,1010.877,585.039Z" transform="translate(-1008.439 -580.164)" fill="#fff"/>
    <path id="Path_9" data-name="Path 9" d="M1032.672,596.438c0-3.759-.811-6.274-5.192-6.274-2.105,0-3.519.782-4.1,1.88h-.06v-1.88h-3.884v13.929h4.06v-6.9c0-1.821.344-3.584,2.6-3.584,2.219,0,2.4,2.082,2.4,3.7v6.787h4.179Z" transform="translate(-1011.778 -583.199)" fill="#fff"/>
  </g>
  <path id="Path_10" data-name="Path 10" d="M1032.87,587.879a16.715,16.715,0,1,1-16.715-16.715A16.715,16.715,0,0,1,1032.87,587.879Z" transform="translate(-999.439 -571.164)" fill="#585858"/>
  <g id="Group_5" data-name="Group 5" transform="translate(6.268 6.268)">
    <rect id="Rectangle_2" data-name="Rectangle 2" width="4.344" height="14.119" transform="translate(0.248 6.527)" fill="#fff"/>
    <path id="Path_11" data-name="Path 11" d="M1010.877,585.039a2.438,2.438,0,1,0-2.438-2.438A2.439,2.439,0,0,0,1010.877,585.039Z" transform="translate(-1008.439 -580.164)" fill="#fff"/>
    <path id="Path_12" data-name="Path 12" d="M1032.672,596.438c0-3.759-.811-6.274-5.192-6.274-2.105,0-3.519.782-4.1,1.88h-.06v-1.88h-3.884v13.929h4.06v-6.9c0-1.821.344-3.584,2.6-3.584,2.219,0,2.4,2.082,2.4,3.7v6.787h4.179Z" transform="translate(-1011.778 -583.199)" fill="#fff"/>
  </g>
  <path id="Path_13" data-name="Path 13" d="M1032.87,587.879a16.715,16.715,0,1,1-16.715-16.715A16.715,16.715,0,0,1,1032.87,587.879Z" transform="translate(-999.439 -571.164)" fill="#fff"/>
  <g id="Group_6" data-name="Group 6" transform="translate(6.268 6.268)">
    <rect id="Rectangle_3" data-name="Rectangle 3" width="4.344" height="14.119" transform="translate(0.248 6.527)" fill="#e64584"/>
    <path id="Path_14" data-name="Path 14" d="M1010.877,585.039a2.438,2.438,0,1,0-2.438-2.438A2.439,2.439,0,0,0,1010.877,585.039Z" transform="translate(-1008.439 -580.164)" fill="#e64584"/>
    <path id="Path_15" data-name="Path 15" d="M1032.672,596.438c0-3.759-.811-6.274-5.192-6.274-2.105,0-3.519.782-4.1,1.88h-.06v-1.88h-3.884v13.929h4.06v-6.9c0-1.821.344-3.584,2.6-3.584,2.219,0,2.4,2.082,2.4,3.7v6.787h4.179Z" transform="translate(-1011.778 -583.199)" fill="#e64584"/>
  </g>
</svg>
