<?xml version="1.0" encoding="utf-8"?>
<!-- Generator: Adobe Illustrator 27.1.0, SVG Export Plug-In . SVG Version: 6.00 Build 0)  -->
<svg version="1.1" id="in" xmlns="http://www.w3.org/2000/svg" xmlns:xlink="http://www.w3.org/1999/xlink" x="0px" y="0px"
	 viewBox="0 0 95.7 95.7" style="enable-background:new 0 0 95.7 95.7;" xml:space="preserve">
<style type="text/css">
	.st0{fill:#585858;}
	.st1{fill:#FFFFFF;}
	.st2{fill:#A5D5E3;}
</style>
<path id="Path_7" class="st0" d="M95.7,47.8c0,26.4-21.4,47.8-47.8,47.8C21.4,95.7,0,74.3,0,47.8S21.4,0,47.8,0c0,0,0,0,0,0
	C74.3,0,95.7,21.4,95.7,47.8C95.7,47.8,95.7,47.8,95.7,47.8z"/>
<g id="Group_4" transform="translate(17.94 17.94)">
	<rect id="Rectangle_1" x="0.7" y="18.7" class="st1" width="12.4" height="40.4"/>
	<path id="Path_8" class="st1" d="M7,14c3.9,0,7-3.1,7-7s-3.1-7-7-7C3.1,0,0,3.1,0,7l0,0C0,10.8,3.1,14,7,14z"/>
	<path id="Path_9" class="st1" d="M59.8,37.9c0-10.8-2.3-18-14.9-18c-6,0-10.1,2.2-11.7,5.4H33v-5.4H21.9v39.9h11.6V40
		c0-5.2,1-10.3,7.4-10.3c6.4,0,6.9,6,6.9,10.6v19.4h12V37.9z"/>
</g>
<path id="Path_10" class="st0" d="M95.7,47.8c0,26.4-21.4,47.8-47.8,47.8C21.4,95.7,0,74.3,0,47.8S21.4,0,47.8,0c0,0,0,0,0,0
	C74.3,0,95.7,21.4,95.7,47.8C95.7,47.8,95.7,47.8,95.7,47.8z"/>
<g id="Group_5" transform="translate(17.94 17.94)">
	<rect id="Rectangle_2" x="0.7" y="18.7" class="st1" width="12.4" height="40.4"/>
	<path id="Path_11" class="st1" d="M7,14c3.9,0,7-3.1,7-7s-3.1-7-7-7C3.1,0,0,3.1,0,7l0,0C0,10.8,3.1,14,7,14z"/>
	<path id="Path_12" class="st1" d="M59.8,37.9c0-10.8-2.3-18-14.9-18c-6,0-10.1,2.2-11.7,5.4H33v-5.4H21.9v39.9h11.6V40
		c0-5.2,1-10.3,7.4-10.3c6.4,0,6.9,6,6.9,10.6v19.4h12V37.9z"/>
</g>
<path id="Path_13" class="st2" d="M95.7,47.8c0,26.4-21.4,47.8-47.8,47.8C21.4,95.7,0,74.3,0,47.8S21.4,0,47.8,0c0,0,0,0,0,0
	C74.3,0,95.7,21.4,95.7,47.8C95.7,47.8,95.7,47.8,95.7,47.8z"/>
<g id="Group_6" transform="translate(17.94 17.94)">
	<rect id="Rectangle_3" x="0.7" y="18.7" class="st1" width="12.4" height="40.4"/>
	<path id="Path_14" class="st1" d="M7,14c3.9,0,7-3.1,7-7s-3.1-7-7-7C3.1,0,0,3.1,0,7l0,0C0,10.8,3.1,14,7,14z"/>
	<path id="Path_15" class="st1" d="M59.8,37.9c0-10.8-2.3-18-14.9-18c-6,0-10.1,2.2-11.7,5.4H33v-5.4H21.9v39.9h11.6V40
		c0-5.2,1-10.3,7.4-10.3c6.4,0,6.9,6,6.9,10.6v19.4h12V37.9z"/>
</g>
</svg>
