<?xml version="1.0" encoding="utf-8"?>
<!-- Generator: Adobe Illustrator 27.1.0, SVG Export Plug-In . SVG Version: 6.00 Build 0)  -->
<svg version="1.1" id="in" xmlns="http://www.w3.org/2000/svg" xmlns:xlink="http://www.w3.org/1999/xlink" x="0px" y="0px"
	 viewBox="0 0 33.4 33.4" style="enable-background:new 0 0 33.4 33.4;" xml:space="preserve">
<style type="text/css">
	.st0{fill:#585858;}
	.st1{fill:#FFFFFF;}
	.st2{fill:#A5D5E3;}
</style>
<path id="Path_7" class="st0" d="M33.4,16.7c0,9.2-7.5,16.7-16.7,16.7C7.5,33.4,0,25.9,0,16.7C0,7.5,7.5,0,16.7,0
	C25.9,0,33.4,7.5,33.4,16.7L33.4,16.7z"/>
<g id="Group_4" transform="translate(6.268 6.268)">
	<rect id="Rectangle_1" x="0.2" y="6.5" class="st1" width="4.3" height="14.1"/>
	<path id="Path_8" class="st1" d="M2.4,4.9c1.3,0,2.4-1.1,2.4-2.4S3.8,0,2.4,0C1.1,0,0,1.1,0,2.4l0,0C0,3.8,1.1,4.9,2.4,4.9z"/>
	<path id="Path_9" class="st1" d="M20.9,13.2c0-3.8-0.8-6.3-5.2-6.3c-2.1,0-3.5,0.8-4.1,1.9h-0.1V7H7.7v13.9h4.1V14
		c0-1.8,0.3-3.6,2.6-3.6c2.2,0,2.4,2.1,2.4,3.7v6.8h4.2L20.9,13.2z"/>
</g>
<path id="Path_10" class="st0" d="M33.4,16.7c0,9.2-7.5,16.7-16.7,16.7C7.5,33.4,0,25.9,0,16.7C0,7.5,7.5,0,16.7,0
	C25.9,0,33.4,7.5,33.4,16.7L33.4,16.7z"/>
<g id="Group_5" transform="translate(6.268 6.268)">
	<rect id="Rectangle_2" x="0.2" y="6.5" class="st1" width="4.3" height="14.1"/>
	<path id="Path_11" class="st1" d="M2.4,4.9c1.3,0,2.4-1.1,2.4-2.4S3.8,0,2.4,0C1.1,0,0,1.1,0,2.4l0,0C0,3.8,1.1,4.9,2.4,4.9z"/>
	<path id="Path_12" class="st1" d="M20.9,13.2c0-3.8-0.8-6.3-5.2-6.3c-2.1,0-3.5,0.8-4.1,1.9h-0.1V7H7.7v13.9h4.1V14
		c0-1.8,0.3-3.6,2.6-3.6c2.2,0,2.4,2.1,2.4,3.7v6.8h4.2L20.9,13.2z"/>
</g>
<path id="Path_13" class="st2" d="M33.4,16.7c0,9.2-7.5,16.7-16.7,16.7C7.5,33.4,0,25.9,0,16.7C0,7.5,7.5,0,16.7,0
	C25.9,0,33.4,7.5,33.4,16.7L33.4,16.7z"/>
<g id="Group_6" transform="translate(6.268 6.268)">
	<rect id="Rectangle_3" x="0.2" y="6.5" class="st1" width="4.3" height="14.1"/>
	<path id="Path_14" class="st1" d="M2.4,4.9c1.3,0,2.4-1.1,2.4-2.4S3.8,0,2.4,0C1.1,0,0,1.1,0,2.4l0,0C0,3.8,1.1,4.9,2.4,4.9z"/>
	<path id="Path_15" class="st1" d="M20.9,13.2c0-3.8-0.8-6.3-5.2-6.3c-2.1,0-3.5,0.8-4.1,1.9h-0.1V7H7.7v13.9h4.1V14
		c0-1.8,0.3-3.6,2.6-3.6c2.2,0,2.4,2.1,2.4,3.7v6.8h4.2L20.9,13.2z"/>
</g>
</svg>
