<?xml version="1.0" encoding="utf-8"?>
<!-- Generator: Adobe Illustrator 27.1.0, SVG Export Plug-In . SVG Version: 6.00 Build 0)  -->
<svg version="1.1" id="twitter" xmlns="http://www.w3.org/2000/svg" xmlns:xlink="http://www.w3.org/1999/xlink" x="0px" y="0px"
	 viewBox="0 0 97.3 97.3" style="enable-background:new 0 0 97.3 97.3;" xml:space="preserve">
<style type="text/css">
	.st0{fill:#8B8B8B;}
	.st1{fill:#FFFFFF;}
	.st2{fill:#A5D5E3;}
</style>
<path id="Path_22" class="st0" d="M97.3,48.6c0,26.9-21.8,48.6-48.6,48.6C21.8,97.3,0,75.5,0,48.6C0,21.8,21.8,0,48.6,0c0,0,0,0,0,0
	C75.5,0,97.3,21.8,97.3,48.6z"/>
<g id="Group_11" transform="translate(18.236 24.314)">
	<path id="Path_23" class="st1" d="M59.1,0.9c-2.5,1.4-5.1,2.4-7.9,3C48.8,1.4,45.5,0,42.1,0c-6.8-0.1-12.4,5.3-12.5,12.1
		c0,1,0.1,2,0.3,3c-10-0.5-19.3-5.1-25.7-12.8c-1.1,1.9-1.7,4-1.7,6.2c0,4.1,2.1,8,5.6,10.2c-2-0.1-3.9-0.6-5.6-1.5v0.2
		c0,5.9,4.2,10.9,10,12c-1.1,0.3-2.2,0.4-3.3,0.4c-0.8,0-1.6-0.1-2.3-0.2c1.7,5,6.3,8.5,11.6,8.5C14,41.5,8.6,43.3,3,43.3
		c-1,0-2-0.1-3-0.2c5.7,3.6,12.4,5.5,19.1,5.5c22.9,0,35.5-18.7,35.5-34.9c0-0.5,0-1.1,0-1.6c2.4-1.7,4.5-3.9,6.2-6.4
		c-2.3,1-4.7,1.6-7.2,1.9C56.2,6.2,58.2,3.8,59.1,0.9z"/>
</g>
<path id="Path_24" class="st0" d="M97.3,48.6c0,26.9-21.8,48.6-48.6,48.6C21.8,97.3,0,75.5,0,48.6C0,21.8,21.8,0,48.6,0c0,0,0,0,0,0
	C75.5,0,97.3,21.8,97.3,48.6z"/>
<g id="Group_12" transform="translate(18.236 24.314)">
	<path id="Path_25" class="st1" d="M59.1,0.9c-2.5,1.4-5.1,2.4-7.9,3C48.8,1.4,45.5,0,42.1,0c-6.8-0.1-12.4,5.3-12.5,12.1
		c0,1,0.1,2,0.3,3c-10-0.5-19.3-5.1-25.7-12.8c-1.1,1.9-1.7,4-1.7,6.2c0,4.1,2.1,8,5.6,10.2c-2-0.1-3.9-0.6-5.6-1.5v0.2
		c0,5.9,4.2,10.9,10,12c-1.1,0.3-2.2,0.4-3.3,0.4c-0.8,0-1.6-0.1-2.3-0.2c1.7,5,6.3,8.5,11.6,8.5C14,41.5,8.6,43.3,3,43.3
		c-1,0-2-0.1-3-0.2c5.7,3.6,12.4,5.5,19.1,5.5c22.9,0,35.5-18.7,35.5-34.9c0-0.5,0-1.1,0-1.6c2.4-1.7,4.5-3.9,6.2-6.4
		c-2.3,1-4.7,1.6-7.2,1.9C56.2,6.2,58.2,3.8,59.1,0.9z"/>
</g>
<path id="Path_26" class="st2" d="M97.3,48.6c0,26.9-21.8,48.6-48.6,48.6C21.8,97.3,0,75.5,0,48.6C0,21.8,21.8,0,48.6,0c0,0,0,0,0,0
	C75.5,0,97.3,21.8,97.3,48.6z"/>
<g id="Group_13" transform="translate(18.236 24.314)">
	<path id="Path_27" class="st1" d="M59.1,0.9c-2.5,1.4-5.1,2.4-7.9,3C48.8,1.4,45.5,0,42.1,0c-6.8-0.1-12.4,5.3-12.5,12.1
		c0,1,0.1,2,0.3,3c-10-0.5-19.3-5.1-25.7-12.8c-1.1,1.9-1.7,4-1.7,6.2c0,4.1,2.1,8,5.6,10.2c-2-0.1-3.9-0.6-5.6-1.5v0.2
		c0,5.9,4.2,10.9,10,12c-1.1,0.3-2.2,0.4-3.3,0.4c-0.8,0-1.6-0.1-2.3-0.2c1.7,5,6.3,8.5,11.6,8.5C14,41.5,8.6,43.3,3,43.3
		c-1,0-2-0.1-3-0.2c5.7,3.6,12.4,5.5,19.1,5.5c22.9,0,35.5-18.7,35.5-34.9c0-0.5,0-1.1,0-1.6c2.4-1.7,4.5-3.9,6.2-6.4
		c-2.3,1-4.7,1.6-7.2,1.9C56.2,6.2,58.2,3.8,59.1,0.9z"/>
</g>
</svg>
