<svg id="twitter" xmlns="http://www.w3.org/2000/svg" width="33.982" height="33.98" viewBox="0 0 33.982 33.98">
  <path id="Path_22" data-name="Path 22" d="M397.672,627.9a16.991,16.991,0,1,1-16.99-16.99A16.991,16.991,0,0,1,397.672,627.9Z" transform="translate(-363.69 -610.914)" fill="#8b8b8b"/>
  <g id="Group_11" data-name="Group 11" transform="translate(6.371 8.495)">
    <path id="Path_23" data-name="Path 23" d="M393.343,623.227a8.806,8.806,0,0,1-2.768,1.042,4.378,4.378,0,0,0-3.18-1.355,4.294,4.294,0,0,0-4.245,5.267,12.439,12.439,0,0,1-8.981-4.482,4.224,4.224,0,0,0-.59,2.157,4.271,4.271,0,0,0,1.94,3.569,4.4,4.4,0,0,1-1.974-.537v.054a4.311,4.311,0,0,0,3.5,4.207,4.422,4.422,0,0,1-1.149.151,4.48,4.48,0,0,1-.82-.077,4.356,4.356,0,0,0,4.071,2.979,8.838,8.838,0,0,1-5.413,1.836,9.145,9.145,0,0,1-1.039-.06,12.488,12.488,0,0,0,6.68,1.926,12.21,12.21,0,0,0,12.4-12.2c0-.186,0-.372-.011-.555a8.784,8.784,0,0,0,2.174-2.221,8.807,8.807,0,0,1-2.5.675A4.311,4.311,0,0,0,393.343,623.227Z" transform="translate(-372.69 -622.914)" fill="#fff"/>
  </g>
  <path id="Path_24" data-name="Path 24" d="M397.672,627.9a16.991,16.991,0,1,1-16.99-16.99A16.991,16.991,0,0,1,397.672,627.9Z" transform="translate(-363.69 -610.914)" fill="#8b8b8b"/>
  <g id="Group_12" data-name="Group 12" transform="translate(6.371 8.495)">
    <path id="Path_25" data-name="Path 25" d="M393.343,623.227a8.806,8.806,0,0,1-2.768,1.042,4.378,4.378,0,0,0-3.18-1.355,4.294,4.294,0,0,0-4.245,5.267,12.439,12.439,0,0,1-8.981-4.482,4.224,4.224,0,0,0-.59,2.157,4.271,4.271,0,0,0,1.94,3.569,4.4,4.4,0,0,1-1.974-.537v.054a4.311,4.311,0,0,0,3.5,4.207,4.422,4.422,0,0,1-1.149.151,4.48,4.48,0,0,1-.82-.077,4.356,4.356,0,0,0,4.071,2.979,8.838,8.838,0,0,1-5.413,1.836,9.145,9.145,0,0,1-1.039-.06,12.488,12.488,0,0,0,6.68,1.926,12.21,12.21,0,0,0,12.4-12.2c0-.186,0-.372-.011-.555a8.784,8.784,0,0,0,2.174-2.221,8.807,8.807,0,0,1-2.5.675A4.311,4.311,0,0,0,393.343,623.227Z" transform="translate(-372.69 -622.914)" fill="#fff"/>
  </g>
  <path id="Path_26" data-name="Path 26" d="M397.672,627.9a16.991,16.991,0,1,1-16.99-16.99A16.991,16.991,0,0,1,397.672,627.9Z" transform="translate(-363.69 -610.914)" fill="#fff"/>
  <g id="Group_13" data-name="Group 13" transform="translate(6.371 8.495)">
    <path id="Path_27" data-name="Path 27" d="M393.343,623.227a8.806,8.806,0,0,1-2.768,1.042,4.378,4.378,0,0,0-3.18-1.355,4.294,4.294,0,0,0-4.245,5.267,12.439,12.439,0,0,1-8.981-4.482,4.224,4.224,0,0,0-.59,2.157,4.271,4.271,0,0,0,1.94,3.569,4.4,4.4,0,0,1-1.974-.537v.054a4.311,4.311,0,0,0,3.5,4.207,4.422,4.422,0,0,1-1.149.151,4.48,4.48,0,0,1-.82-.077,4.356,4.356,0,0,0,4.071,2.979,8.838,8.838,0,0,1-5.413,1.836,9.145,9.145,0,0,1-1.039-.06,12.488,12.488,0,0,0,6.68,1.926,12.21,12.21,0,0,0,12.4-12.2c0-.186,0-.372-.011-.555a8.784,8.784,0,0,0,2.174-2.221,8.807,8.807,0,0,1-2.5.675A4.311,4.311,0,0,0,393.343,623.227Z" transform="translate(-372.69 -622.914)" fill="#e64584"/>
  </g>
</svg>
