<?xml version="1.0" encoding="utf-8"?>
<!-- Generator: Adobe Illustrator 27.1.0, SVG Export Plug-In . SVG Version: 6.00 Build 0)  -->
<svg version="1.1" id="twitter" xmlns="http://www.w3.org/2000/svg" xmlns:xlink="http://www.w3.org/1999/xlink" x="0px" y="0px"
	 viewBox="0 0 34 34" style="enable-background:new 0 0 34 34;" xml:space="preserve">
<style type="text/css">
	.st0{fill:#8B8B8B;}
	.st1{fill:#FFFFFF;}
	.st2{fill:#A5D5E3;}
</style>
<path id="Path_22" class="st0" d="M34,17c0,9.4-7.6,17-17,17S0,26.4,0,17S7.6,0,17,0c0,0,0,0,0,0C26.4,0,34,7.6,34,17z"/>
<g id="Group_11" transform="translate(6.371 8.495)">
	<path id="Path_23" class="st1" d="M20.7,0.3c-0.9,0.5-1.8,0.9-2.8,1c-0.8-0.9-2-1.4-3.2-1.4c-2.4,0-4.3,1.9-4.4,4.2
		c0,0.3,0,0.7,0.1,1C7,5.1,3.7,3.5,1.5,0.8C1.1,1.4,0.9,2.2,0.9,2.9c0,1.4,0.7,2.8,1.9,3.6c-0.7,0-1.4-0.2-2-0.5V6
		c0,2.1,1.5,3.8,3.5,4.2c-0.4,0.1-0.8,0.2-1.1,0.2c-0.3,0-0.5,0-0.8-0.1c0.6,1.8,2.2,3,4.1,3C4.9,14.5,3,15.1,1,15.1
		c-0.3,0-0.7,0-1-0.1C2,16.3,4.3,17,6.7,17c6.7,0.1,12.3-5.3,12.4-12c0-0.1,0-0.1,0-0.2c0-0.2,0-0.4,0-0.6c0.9-0.6,1.6-1.4,2.2-2.2
		c-0.8,0.3-1.6,0.6-2.5,0.7C19.7,2.2,20.3,1.3,20.7,0.3z"/>
</g>
<path id="Path_24" class="st0" d="M34,17c0,9.4-7.6,17-17,17S0,26.4,0,17S7.6,0,17,0c0,0,0,0,0,0C26.4,0,34,7.6,34,17z"/>
<g id="Group_12" transform="translate(6.371 8.495)">
	<path id="Path_25" class="st1" d="M20.7,0.3c-0.9,0.5-1.8,0.9-2.8,1c-0.8-0.9-2-1.4-3.2-1.4c-2.4,0-4.3,1.9-4.4,4.2
		c0,0.3,0,0.7,0.1,1C7,5.1,3.7,3.5,1.5,0.8C1.1,1.4,0.9,2.2,0.9,2.9c0,1.4,0.7,2.8,1.9,3.6c-0.7,0-1.4-0.2-2-0.5V6
		c0,2.1,1.5,3.8,3.5,4.2c-0.4,0.1-0.8,0.2-1.1,0.2c-0.3,0-0.5,0-0.8-0.1c0.6,1.8,2.2,3,4.1,3C4.9,14.5,3,15.1,1,15.1
		c-0.3,0-0.7,0-1-0.1C2,16.3,4.3,17,6.7,17c6.7,0.1,12.3-5.3,12.4-12c0-0.1,0-0.1,0-0.2c0-0.2,0-0.4,0-0.6c0.9-0.6,1.6-1.4,2.2-2.2
		c-0.8,0.3-1.6,0.6-2.5,0.7C19.7,2.2,20.3,1.3,20.7,0.3z"/>
</g>
<path id="Path_26" class="st2" d="M34,17c0,9.4-7.6,17-17,17S0,26.4,0,17S7.6,0,17,0c0,0,0,0,0,0C26.4,0,34,7.6,34,17z"/>
<g id="Group_13" transform="translate(6.371 8.495)">
	<path id="Path_27" class="st1" d="M20.7,0.3c-0.9,0.5-1.8,0.9-2.8,1c-0.8-0.9-2-1.4-3.2-1.4c-2.4,0-4.3,1.9-4.4,4.2
		c0,0.3,0,0.7,0.1,1C7,5.1,3.7,3.5,1.5,0.8C1.1,1.4,0.9,2.2,0.9,2.9c0,1.4,0.7,2.8,1.9,3.6c-0.7,0-1.4-0.2-2-0.5V6
		c0,2.1,1.5,3.8,3.5,4.2c-0.4,0.1-0.8,0.2-1.1,0.2c-0.3,0-0.5,0-0.8-0.1c0.6,1.8,2.2,3,4.1,3C4.9,14.5,3,15.1,1,15.1
		c-0.3,0-0.7,0-1-0.1C2,16.3,4.3,17,6.7,17c6.7,0.1,12.3-5.3,12.4-12c0-0.1,0-0.1,0-0.2c0-0.2,0-0.4,0-0.6c0.9-0.6,1.6-1.4,2.2-2.2
		c-0.8,0.3-1.6,0.6-2.5,0.7C19.7,2.2,20.3,1.3,20.7,0.3z"/>
</g>
</svg>
